# xmcd
#
# Track frame offsets:
#	150
#	13842
#	29817
#	44012
#	59730
#	77250
#	92212
#	107312
#	121072
#	139547
#	156280
#
# Disc length: 2331 seconds
#
# Revision: 4
# Processed by: cddbd v1.5.1PL2 Copyright (c) Steve Scherf et al.
# Submitted via: dBpowerAMP V4.0
#
DISCID=8d09190b
DTITLE=Alabama - Cheap Seats
DYEAR=1993
DGENRE=Country
TTITLE0=Still Goin' Strong
TTITLE1=T.L.C. A.S.A.P.
TTITLE2=Katy Brought My Guitar Back Today
TTITLE3=On This Side Of The Moon
TTITLE4=The Cheap Seats
TTITLE5=Reckless
TTITLE6=That Feeling
TTITLE7=This Love's On Me
TTITLE8=Clear Water Blues
TTITLE9=A Better Word For Love
TTITLE10=Angels Among Us
EXTD=
EXTT0=
EXTT1=
EXTT2=
EXTT3=
EXTT4=
EXTT5=
EXTT6=
EXTT7=
EXTT8=
EXTT9=
EXTT10=
PLAYORDER=
